<svg width="173" height="51" viewBox="0 0 173 51" fill="none" xmlns="http://www.w3.org/2000/svg">
<path d="M26.0095 6.48348C26.1156 5.94599 26.8844 5.94599 26.9905 6.48348L32.0113 31.9031C32.0723 32.2122 31.8358 32.5 31.5207 32.5H21.4793C21.1642 32.5 20.9277 32.2122 20.9887 31.9031L26.0095 6.48348Z" fill="url(#paint0_linear_204_240)"/>
<path d="M19.0095 11.4835C19.1156 10.946 19.8844 10.946 19.9905 11.4835L25.0113 36.9031C25.0723 37.2122 24.8358 37.5 24.5207 37.5H14.4793C14.1642 37.5 13.9277 37.2122 13.9887 36.9031L19.0095 11.4835Z" fill="url(#paint1_linear_204_240)"/>
<path d="M34.0125 11.1391C34.1307 10.6206 34.8693 10.6206 34.9875 11.1391L40.8559 36.8889C40.9272 37.2019 40.6894 37.5 40.3684 37.5H28.6316C28.3106 37.5 28.0728 37.2019 28.1441 36.8889L34.0125 11.1391Z" fill="url(#paint2_linear_204_240)"/>
<path d="M43.0125 8.13908C43.1307 7.62055 43.8693 7.62055 43.9875 8.13908L49.8559 33.8889C49.9272 34.2019 49.6894 34.5 49.3684 34.5H37.6316C37.3106 34.5 37.0728 34.2019 37.1441 33.8889L43.0125 8.13908Z" fill="url(#paint3_linear_204_240)"/>
<path d="M50.0125 9.13908C50.1307 8.62055 50.8693 8.62055 50.9875 9.13908L56.8559 34.8889C56.9272 35.2019 56.6894 35.5 56.3684 35.5H44.6316C44.3106 35.5 44.0728 35.2019 44.1441 34.8889L50.0125 9.13908Z" fill="url(#paint4_linear_204_240)"/>
<path d="M57.0125 11.1391C57.1307 10.6206 57.8693 10.6206 57.9875 11.1391L63.8559 36.8889C63.9272 37.2019 63.6894 37.5 63.3684 37.5H51.6316C51.3106 37.5 51.0728 37.2019 51.1441 36.8889L57.0125 11.1391Z" fill="url(#paint5_linear_204_240)"/>
<path d="M63.0125 5.13908C63.1307 4.62055 63.8693 4.62055 63.9875 5.13908L69.8559 30.8889C69.9272 31.2019 69.6894 31.5 69.3684 31.5H57.6316C57.3106 31.5 57.0728 31.2019 57.1441 30.8889L63.0125 5.13908Z" fill="url(#paint6_linear_204_240)"/>
<path d="M73.0125 9.13908C73.1307 8.62055 73.8693 8.62055 73.9875 9.13908L79.8559 34.8889C79.9272 35.2019 79.6894 35.5 79.3684 35.5H67.6316C67.3106 35.5 67.0728 35.2019 67.1441 34.8889L73.0125 9.13908Z" fill="url(#paint7_linear_204_240)"/>
<path d="M82.0125 13.1391C82.1307 12.6206 82.8693 12.6206 82.9875 13.1391L88.8559 38.8889C88.9272 39.2019 88.6894 39.5 88.3684 39.5H76.6316C76.3106 39.5 76.0728 39.2019 76.1441 38.8889L82.0125 13.1391Z" fill="url(#paint8_linear_204_240)"/>
<path d="M91.0125 8.13908C91.1307 7.62055 91.8693 7.62055 91.9875 8.13908L97.8559 33.8889C97.9272 34.2019 97.6894 34.5 97.3684 34.5H85.6316C85.3106 34.5 85.0728 34.2019 85.1441 33.8889L91.0125 8.13908Z" fill="url(#paint9_linear_204_240)"/>
<path d="M97.0125 13.1391C97.1307 12.6206 97.8693 12.6206 97.9875 13.1391L103.856 38.8889C103.927 39.2019 103.689 39.5 103.368 39.5H91.6316C91.3106 39.5 91.0728 39.2019 91.1441 38.8889L97.0125 13.1391Z" fill="url(#paint10_linear_204_240)"/>
<path d="M102.012 15.1391C102.131 14.6206 102.869 14.6206 102.988 15.1391L108.856 40.8889C108.927 41.2019 108.689 41.5 108.368 41.5H96.6316C96.3106 41.5 96.0728 41.2019 96.1441 40.8889L102.012 15.1391Z" fill="url(#paint11_linear_204_240)"/>
<path d="M109.012 9.13908C109.131 8.62055 109.869 8.62055 109.988 9.13908L115.856 34.8889C115.927 35.2019 115.689 35.5 115.368 35.5H103.632C103.311 35.5 103.073 35.2019 103.144 34.8889L109.012 9.13908Z" fill="url(#paint12_linear_204_240)"/>
<path d="M117.012 13.1391C117.131 12.6206 117.869 12.6206 117.988 13.1391L123.856 38.8889C123.927 39.2019 123.689 39.5 123.368 39.5H111.632C111.311 39.5 111.073 39.2019 111.144 38.8889L117.012 13.1391Z" fill="url(#paint13_linear_204_240)"/>
<path d="M125.012 7.13908C125.131 6.62055 125.869 6.62055 125.988 7.13908L131.856 32.8889C131.927 33.2019 131.689 33.5 131.368 33.5H119.632C119.311 33.5 119.073 33.2019 119.144 32.8889L125.012 7.13908Z" fill="url(#paint14_linear_204_240)"/>
<path d="M133.012 11.1391C133.131 10.6206 133.869 10.6206 133.988 11.1391L139.856 36.8889C139.927 37.2019 139.689 37.5 139.368 37.5H127.632C127.311 37.5 127.073 37.2019 127.144 36.8889L133.012 11.1391Z" fill="url(#paint15_linear_204_240)"/>
<path d="M141.012 6.13908C141.131 5.62055 141.869 5.62055 141.988 6.13908L147.856 31.8889C147.927 32.2019 147.689 32.5 147.368 32.5H135.632C135.311 32.5 135.073 32.2019 135.144 31.8889L141.012 6.13908Z" fill="url(#paint16_linear_204_240)"/>
<path d="M149.012 9.13908C149.131 8.62055 149.869 8.62055 149.988 9.13908L155.856 34.8889C155.927 35.2019 155.689 35.5 155.368 35.5H143.632C143.311 35.5 143.073 35.2019 143.144 34.8889L149.012 9.13908Z" fill="url(#paint17_linear_204_240)"/>
<path d="M157.012 2.13908C157.131 1.62055 157.869 1.62055 157.988 2.13908L163.856 27.8889C163.927 28.2019 163.689 28.5 163.368 28.5H151.632C151.311 28.5 151.073 28.2019 151.144 27.8889L157.012 2.13908Z" fill="url(#paint18_linear_204_240)"/>
<path d="M165.012 5.13908C165.131 4.62055 165.869 4.62055 165.988 5.13908L171.856 30.8889C171.927 31.2019 171.689 31.5 171.368 31.5H159.632C159.311 31.5 159.073 31.2019 159.144 30.8889L165.012 5.13908Z" fill="url(#paint19_linear_204_240)"/>
<path d="M14.0125 9.13908C14.1307 8.62055 14.8693 8.62055 14.9875 9.13908L20.8559 34.8889C20.9272 35.2019 20.6894 35.5 20.3684 35.5H8.63158C8.3106 35.5 8.07276 35.2019 8.14408 34.8889L14.0125 9.13908Z" fill="url(#paint20_linear_204_240)"/>
<path d="M7.0125 2.13908C7.13067 1.62055 7.86933 1.62055 7.9875 2.13908L13.8559 27.8889C13.9272 28.2019 13.6894 28.5 13.3684 28.5H1.63158C1.3106 28.5 1.07276 28.2019 1.14408 27.8889L7.0125 2.13908Z" fill="url(#paint21_linear_204_240)"/>
<defs>
<linearGradient id="paint0_linear_204_240" x1="26.5" y1="4" x2="26.5" y2="42" gradientUnits="userSpaceOnUse">
<stop stop-color="#111F51"/>
<stop offset="1" stop-color="#83459F" stop-opacity="0"/>
</linearGradient>
<linearGradient id="paint1_linear_204_240" x1="19.5" y1="9" x2="19.5" y2="47" gradientUnits="userSpaceOnUse">
<stop stop-color="#111F51"/>
<stop offset="1" stop-color="#83459F" stop-opacity="0"/>
</linearGradient>
<linearGradient id="paint2_linear_204_240" x1="34.5" y1="9" x2="34.5" y2="47" gradientUnits="userSpaceOnUse">
<stop stop-color="#111F51"/>
<stop offset="1" stop-color="#83459F" stop-opacity="0"/>
</linearGradient>
<linearGradient id="paint3_linear_204_240" x1="43.5" y1="6" x2="43.5" y2="44" gradientUnits="userSpaceOnUse">
<stop stop-color="#111F51"/>
<stop offset="1" stop-color="#83459F" stop-opacity="0"/>
</linearGradient>
<linearGradient id="paint4_linear_204_240" x1="50.5" y1="7" x2="50.5" y2="45" gradientUnits="userSpaceOnUse">
<stop stop-color="#111F51"/>
<stop offset="1" stop-color="#83459F" stop-opacity="0"/>
</linearGradient>
<linearGradient id="paint5_linear_204_240" x1="57.5" y1="9" x2="57.5" y2="47" gradientUnits="userSpaceOnUse">
<stop stop-color="#111F51"/>
<stop offset="1" stop-color="#83459F" stop-opacity="0"/>
</linearGradient>
<linearGradient id="paint6_linear_204_240" x1="63.5" y1="3" x2="63.5" y2="41" gradientUnits="userSpaceOnUse">
<stop stop-color="#111F51"/>
<stop offset="1" stop-color="#83459F" stop-opacity="0"/>
</linearGradient>
<linearGradient id="paint7_linear_204_240" x1="73.5" y1="7" x2="73.5" y2="45" gradientUnits="userSpaceOnUse">
<stop stop-color="#111F51"/>
<stop offset="1" stop-color="#83459F" stop-opacity="0"/>
</linearGradient>
<linearGradient id="paint8_linear_204_240" x1="82.5" y1="11" x2="82.5" y2="49" gradientUnits="userSpaceOnUse">
<stop stop-color="#111F51"/>
<stop offset="1" stop-color="#83459F" stop-opacity="0"/>
</linearGradient>
<linearGradient id="paint9_linear_204_240" x1="91.5" y1="6" x2="91.5" y2="44" gradientUnits="userSpaceOnUse">
<stop stop-color="#111F51"/>
<stop offset="1" stop-color="#83459F" stop-opacity="0"/>
</linearGradient>
<linearGradient id="paint10_linear_204_240" x1="97.5" y1="11" x2="97.5" y2="49" gradientUnits="userSpaceOnUse">
<stop stop-color="#111F51"/>
<stop offset="1" stop-color="#83459F" stop-opacity="0"/>
</linearGradient>
<linearGradient id="paint11_linear_204_240" x1="102.5" y1="13" x2="102.5" y2="51" gradientUnits="userSpaceOnUse">
<stop stop-color="#111F51"/>
<stop offset="1" stop-color="#83459F" stop-opacity="0"/>
</linearGradient>
<linearGradient id="paint12_linear_204_240" x1="109.5" y1="7" x2="109.5" y2="45" gradientUnits="userSpaceOnUse">
<stop stop-color="#111F51"/>
<stop offset="1" stop-color="#83459F" stop-opacity="0"/>
</linearGradient>
<linearGradient id="paint13_linear_204_240" x1="117.5" y1="11" x2="117.5" y2="49" gradientUnits="userSpaceOnUse">
<stop stop-color="#111F51"/>
<stop offset="1" stop-color="#83459F" stop-opacity="0"/>
</linearGradient>
<linearGradient id="paint14_linear_204_240" x1="125.5" y1="5" x2="125.5" y2="43" gradientUnits="userSpaceOnUse">
<stop stop-color="#111F51"/>
<stop offset="1" stop-color="#83459F" stop-opacity="0"/>
</linearGradient>
<linearGradient id="paint15_linear_204_240" x1="133.5" y1="9" x2="133.5" y2="47" gradientUnits="userSpaceOnUse">
<stop stop-color="#111F51"/>
<stop offset="1" stop-color="#83459F" stop-opacity="0"/>
</linearGradient>
<linearGradient id="paint16_linear_204_240" x1="141.5" y1="4" x2="141.5" y2="42" gradientUnits="userSpaceOnUse">
<stop stop-color="#111F51"/>
<stop offset="1" stop-color="#83459F" stop-opacity="0"/>
</linearGradient>
<linearGradient id="paint17_linear_204_240" x1="149.5" y1="7" x2="149.5" y2="45" gradientUnits="userSpaceOnUse">
<stop stop-color="#111F51"/>
<stop offset="1" stop-color="#83459F" stop-opacity="0"/>
</linearGradient>
<linearGradient id="paint18_linear_204_240" x1="157.5" y1="0" x2="157.5" y2="38" gradientUnits="userSpaceOnUse">
<stop stop-color="#111F51"/>
<stop offset="1" stop-color="#83459F" stop-opacity="0"/>
</linearGradient>
<linearGradient id="paint19_linear_204_240" x1="165.5" y1="3" x2="165.5" y2="41" gradientUnits="userSpaceOnUse">
<stop stop-color="#111F51"/>
<stop offset="1" stop-color="#83459F" stop-opacity="0"/>
</linearGradient>
<linearGradient id="paint20_linear_204_240" x1="14.5" y1="7" x2="14.5" y2="45" gradientUnits="userSpaceOnUse">
<stop stop-color="#111F51"/>
<stop offset="1" stop-color="#83459F" stop-opacity="0"/>
</linearGradient>
<linearGradient id="paint21_linear_204_240" x1="7.5" y1="0" x2="7.5" y2="38" gradientUnits="userSpaceOnUse">
<stop stop-color="#111F51"/>
<stop offset="1" stop-color="#83459F" stop-opacity="0"/>
</linearGradient>
</defs>
</svg>
