<svg width="268" height="77" viewBox="0 0 268 77" fill="none" xmlns="http://www.w3.org/2000/svg">
<path d="M69.5 35L51 62.5L144 65L122.5 42.5H120L109.5 26.5H104.5L91 7L76 35H69.5Z" fill="url(#paint0_linear_205_246)"/>
<path d="M132.5 33L114 60.5L207 63L185.5 40.5H183L172.5 24.5H167.5L154 5L139 33H132.5Z" fill="url(#paint1_linear_205_246)"/>
<path d="M175.876 39.7586L153 73.8965L268 77L241.414 49.069H238.323L225.339 29.2069H219.156L202.462 5L183.914 39.7586H175.876Z" fill="url(#paint2_linear_205_246)"/>
<path d="M22.8763 34.7586L0 68.8965L115 72L88.414 44.069H85.3226L72.3387 24.2069H66.1559L49.4624 0L30.914 34.7586H22.8763Z" fill="url(#paint3_linear_205_246)"/>
<defs>
<linearGradient id="paint0_linear_205_246" x1="97.5" y1="7" x2="97.5" y2="65" gradientUnits="userSpaceOnUse">
<stop offset="0.290234" stop-color="#6783CA"/>
<stop offset="1" stop-color="#271B59"/>
</linearGradient>
<linearGradient id="paint1_linear_205_246" x1="160.5" y1="5" x2="160.5" y2="63" gradientUnits="userSpaceOnUse">
<stop offset="0.290234" stop-color="#6783CA"/>
<stop offset="1" stop-color="#271B59"/>
</linearGradient>
<linearGradient id="paint2_linear_205_246" x1="210.5" y1="5" x2="210.5" y2="77" gradientUnits="userSpaceOnUse">
<stop offset="0.290234" stop-color="#6783CA"/>
<stop offset="1" stop-color="#271B59"/>
</linearGradient>
<linearGradient id="paint3_linear_205_246" x1="57.5" y1="0" x2="57.5" y2="72" gradientUnits="userSpaceOnUse">
<stop offset="0.290234" stop-color="#6783CA"/>
<stop offset="1" stop-color="#271B59"/>
</linearGradient>
</defs>
</svg>
